<svg xmlns="http://www.w3.org/2000/svg" viewBox="0 0 512 512" width="512" height="512">
  <defs>
    <radialGradient id="bg" cx="50%" cy="45%" r="55%">
      <stop offset="0%" stop-color="#fffdf5"/>
      <stop offset="100%" stop-color="#f5f3ee"/>
    </radialGradient>
    <linearGradient id="gold" x1="0%" y1="0%" x2="100%" y2="100%">
      <stop offset="0%" stop-color="#ba7517"/>
      <stop offset="100%" stop-color="#412402"/>
    </linearGradient>
  </defs>
  <rect width="512" height="512" rx="80" fill="url(#bg)"/>
  <circle cx="256" cy="256" r="200" fill="none" stroke="url(#gold)" stroke-width="6"/>
  <circle cx="256" cy="256" r="180" fill="none" stroke="#ba7517" stroke-width="1.5" opacity="0.3"/>
  <g transform="translate(256 256)">
    <path d="M 0,-150 A 150,150 0 0,1 0,150 A 75,75 0 0,1 0,0 A 75,75 0 0,0 0,-150 Z" fill="#1a1a1a"/>
    <path d="M 0,-150 A 150,150 0 0,0 0,150 A 75,75 0 0,0 0,0 A 75,75 0 0,1 0,-150 Z" fill="#fffdf5"/>
    <circle cx="0" cy="-75" r="22" fill="#fffdf5"/>
    <circle cx="0" cy="75" r="22" fill="#1a1a1a"/>
  </g>
  <g transform="translate(256 256)" fill="none" stroke="#ba7517" stroke-width="2.5" opacity="0.5">
    <circle r="215"/>
  </g>
</svg>
